# This file uses centimeters as units for non-parametric coordinates.

mtllib grass02.mtl
g default
v -0.159785 -0.000000 0.174693
v 0.014913 0.000000 0.253482
v 0.189611 -0.000000 0.174693
v -0.306285 0.204058 0.253482
v 0.014913 0.199253 0.346384
v 0.432027 0.140047 0.225179
v -0.249125 0.294327 0.125354
v 0.014913 0.301457 0.181891
v 0.176488 0.294327 0.187700
v -0.081309 0.415425 0.000000
v 0.014913 0.282740 0.000000
v 0.196798 0.366651 0.000000
v -0.110438 0.239928 -0.192533
v 0.014913 0.339733 -0.229145
v 0.209867 0.289201 -0.193439
v -0.306285 0.204058 -0.144477
v 0.014913 0.199253 -0.346383
v 0.268392 0.140047 -0.253482
v -0.159785 -0.000000 -0.148162
v 0.014913 0.000000 -0.253482
v 0.189611 -0.000000 -0.174693
v -0.238574 0.000000 0.000000
v 0.014913 -0.000000 0.000000
v 0.268392 0.000000 0.000000
v 0.361303 0.259321 0.072115
v -0.432032 0.222531 0.000000
vt 0.785240 0.477132
vt 0.785240 0.498923
vt 0.771995 0.477132
vt 0.760888 0.499449
vt 0.798484 0.477132
vt 0.816864 0.492448
vt 0.765221 0.509321
vt 0.785240 0.510101
vt 0.797489 0.509321
vt 0.777945 0.522565
vt 0.785240 0.508054
vt 0.799030 0.517231
vt 0.785240 0.514287
vt 0.775736 0.503372
vt 0.800021 0.508761
vt 0.785240 0.498923
vt 0.760888 0.499449
vt 0.804458 0.492448
vt 0.771995 0.477132
vt 0.785240 0.477132
vt 0.798484 0.477132
vt 0.785240 0.477132
vt 0.766022 0.477132
vt 0.804458 0.477132
vt 0.811501 0.505493
vt 0.751354 0.501469
vn 0.000002 -0.422584 0.906324
vn -0.001607 0.097469 0.995237
vn -0.280837 -0.473243 0.834968
vn -0.268641 0.211487 0.939737
vn 0.196333 -0.535584 0.821343
vn 0.255377 -0.154632 0.954396
vn -0.138459 0.838962 0.526281
vn -0.081839 0.846554 0.525974
vn 0.248412 0.698302 0.671317
vn -0.145738 0.801828 0.579510
vn -0.011913 0.949448 0.313698
vn 0.253460 0.933226 0.254653
vn 0.152876 0.984394 0.087165
vn 0.028097 0.931728 0.362069
vn -0.166884 0.985463 0.031813
vn -0.148145 0.965034 -0.216247
vn -0.629905 0.619072 -0.469009
vn 0.293703 0.894080 -0.338169
vn -0.055921 0.639758 -0.766539
vn -0.133424 -0.011030 -0.990998
vn -0.374166 0.774740 -0.509684
vn -0.519908 -0.234123 -0.821512
vn 0.364994 0.520962 -0.771608
vn 0.308801 -0.151351 -0.939008
vn -0.497964 -0.351897 -0.792591
vn -0.074734 -0.421412 -0.903785
vn 0.249894 -0.496990 -0.830996
vn -0.000000 -1.000000 -0.000000
vn 0.000000 -1.000000 0.000000
vn -0.000000 -1.000000 -0.000000
vn -0.000000 -1.000000 0.000000
vn 0.000000 -1.000000 -0.000000
vn 0.000000 -1.000000 -0.000000
vn -0.000000 -1.000000 0.000000
vn -0.000000 -1.000000 0.000000
vn 0.000000 -1.000000 0.000000
vn 0.944829 -0.322271 -0.058649
vn 0.889947 -0.419987 -0.177779
vn 0.955604 0.286933 -0.067004
vn 0.959849 -0.193662 -0.202942
vn 0.821200 -0.567476 -0.060008
vn 0.785900 -0.256195 -0.562784
vn 0.747963 0.554968 -0.364090
vn 0.554036 0.832104 -0.025454
vn 0.404155 0.824241 0.396592
vn -0.754693 -0.656067 -0.003957
vn -0.975303 0.151469 -0.160755
vn -0.700035 -0.570030 -0.430135
vn -0.741028 0.121135 -0.660457
vn -0.713457 -0.626509 0.313792
vn -0.843347 -0.368045 0.391548
vn -0.382936 0.723603 -0.574246
vn -0.430738 0.783190 -0.448417
vn -0.494208 0.834677 0.243049
s 1
g grass02 Source
usemtl aiStandardSurface6SG
f 2/1/1 5/2/2 1/3/3
f 1/3/3 5/2/2 4/4/4
f 2/1/1 3/5/5 5/2/2
f 5/2/2 3/5/5 6/6/6
f 4/4/4 5/2/2 7/7/7
f 7/7/7 5/2/2 8/8/8
f 6/6/6 9/9/9 5/2/2
f 5/2/2 9/9/9 8/8/8
s 2
f 7/7/10 8/8/11 10/10/12
f 10/10/12 8/8/11 11/11/13
f 9/9/14 12/12/15 8/8/11
f 8/8/11 12/12/15 11/11/13
f 11/11/13 14/13/16 10/10/12
f 10/10/12 14/13/16 13/14/17
f 11/11/13 12/12/15 14/13/16
f 14/13/16 12/12/15 15/15/18
s 3
f 14/13/19 17/16/20 13/14/21
f 13/14/21 17/16/20 16/17/22
f 14/13/19 15/15/23 17/16/20
f 17/16/20 15/15/23 18/18/24
f 16/17/22 17/16/20 19/19/25
f 19/19/25 17/16/20 20/20/26
f 18/18/24 21/21/27 17/16/20
f 17/16/20 21/21/27 20/20/26
s 4
f 20/20/28 23/22/29 19/19/30
f 19/19/30 23/22/29 22/23/31
f 20/20/28 21/21/32 23/22/29
f 23/22/29 21/21/32 24/24/33
f 22/23/31 23/22/29 1/3/34
f 1/3/34 23/22/29 2/1/35
f 24/24/33 3/5/36 23/22/29
f 23/22/29 3/5/36 2/1/35
s 5
f 24/24/37 21/21/38 25/25/39
f 25/25/39 21/21/38 18/18/40
f 24/24/37 25/25/39 3/5/41
f 3/5/41 25/25/39 6/6/42
f 18/18/40 15/15/43 25/25/39
f 25/25/39 15/15/43 12/12/44
f 6/6/42 25/25/39 9/9/45
f 9/9/45 25/25/39 12/12/44
s 6
f 22/23/46 26/26/47 19/19/48
f 19/19/48 26/26/47 16/17/49
f 22/23/46 1/3/50 26/26/47
f 26/26/47 1/3/50 4/4/51
f 16/17/49 26/26/47 13/14/52
f 13/14/52 26/26/47 10/10/53
f 4/4/51 7/7/54 26/26/47
f 26/26/47 7/7/54 10/10/53
