# This file uses centimeters as units for non-parametric coordinates.

mtllib Tree01.mtl
g default
v 0.473440 1.686860 0.473441
v 0.000005 1.482033 0.686968
v -0.473437 1.686860 0.473441
v 0.686971 2.151508 0.686968
v 0.000005 2.151508 0.938744
v -0.646983 2.151508 0.610263
v 0.339727 2.569626 0.339727
v 0.000005 2.716605 0.492948
v -0.437876 2.569626 0.508692
v 0.492948 2.897817 0.000000
v 0.000005 3.410567 0.000000
v -0.492945 2.716605 0.000000
v 0.339727 2.422198 -0.521790
v 0.000005 2.977165 -0.621011
v -0.528353 2.555733 -0.524247
v 0.686971 2.151508 -0.686968
v 0.000005 2.151508 -0.938744
v -0.686968 2.151508 -0.686968
v 0.473440 1.549827 -0.401539
v 0.000005 1.482033 -0.686968
v -0.473437 1.686860 -0.473440
v 0.686971 1.482033 0.000000
v 0.000005 1.240516 0.000000
v -0.686968 1.482033 0.000000
v -0.938746 2.151508 0.195442
v 0.938749 2.151508 0.000000
vt 0.833748 0.460765
vt 0.821590 0.493446
vt 0.844059 0.470764
vt 0.833748 0.493446
vt 0.844059 0.470764
vt 0.837452 0.493446
vt 0.850516 0.513857
vt 0.843117 0.521032
vt 0.842357 0.513857
vt 0.866922 0.529878
vt 0.866922 0.554908
vt 0.866922 0.521032
vt 0.896910 0.533751
vt 0.892119 0.506660
vt 0.892237 0.513179
vt 0.912254 0.493446
vt 0.900095 0.493446
vt 0.900095 0.493446
vt 0.886312 0.464074
vt 0.900095 0.460765
vt 0.889784 0.470764
vt 0.866922 0.448975
vt 0.866922 0.460765
vt 0.866922 0.460765
vt 0.857484 0.493446
vt 0.866922 0.493446
vn -0.000001 -0.352013 0.935995
vn 0.399319 -0.412872 0.818585
vn 0.015303 0.096062 0.995258
vn 0.339575 0.161989 0.926525
vn -0.458311 -0.350796 0.816635
vn -0.452404 -0.036410 0.891070
vn 0.360118 0.656700 0.662617
vn 0.198142 0.607076 0.769545
vn -0.301401 0.511803 0.804497
vn 0.524883 0.481516 0.701883
vn 0.773557 0.631606 0.051796
vn -0.128097 0.655023 0.744672
vn -0.135095 0.983730 0.118423
vn -0.294554 0.909107 0.294556
vn -0.728072 0.674536 0.122119
vn -0.005470 0.802048 -0.597235
vn 0.752107 0.361939 -0.550759
vn -0.633268 0.750842 -0.187639
vn -0.034698 0.358927 -0.932721
vn 0.508476 0.471594 -0.720452
vn 0.027220 -0.028137 -0.999233
vn 0.337502 -0.195182 -0.920867
vn -0.376961 0.375499 -0.846700
vn -0.343261 -0.070497 -0.936591
vn 0.401298 -0.413811 -0.817142
vn 0.074828 -0.351026 -0.933371
vn -0.399314 -0.412873 -0.818587
vn -0.149439 -0.932803 -0.327942
vn 0.316142 -0.894445 -0.316261
vn -0.037145 -0.998616 0.037236
vn 0.326670 -0.929163 0.173042
vn -0.392216 -0.832064 -0.392219
vn -0.331670 -0.943396 0.000000
vn 0.392226 -0.832058 0.392222
vn 0.000002 -0.943396 0.331668
vn -0.392221 -0.832060 0.392224
vn -0.940576 -0.325842 -0.095618
vn -0.994134 0.059268 0.090469
vn -0.861554 -0.382837 -0.333408
vn -0.959110 -0.072229 -0.273662
vn -0.738944 -0.429320 0.519275
vn -0.817663 0.026182 0.575102
vn -0.841465 0.502988 -0.197334
vn -0.779614 0.625526 0.030326
vn -0.718699 0.607431 0.338377
vn 0.935950 -0.351991 0.010018
vn 0.836674 -0.391261 -0.383264
vn 0.989825 0.136305 -0.040833
vn 0.927312 0.156794 -0.339865
vn 0.818586 -0.412869 0.399321
vn 0.926526 0.161977 0.339577
vn 0.667765 0.581190 -0.465089
vn 0.856418 0.511567 -0.069630
vn 0.668557 0.563540 0.485237
s 1
g Tree01 Tree01 Source
usemtl aiStandardSurface6SG
f 2/1/1 1/3/2 5/2/3
f 1/3/2 4/4/4 5/2/3
f 2/1/1 5/2/3 3/5/5
f 5/2/3 6/6/6 3/5/5
f 4/4/4 7/7/7 5/2/3
f 7/7/7 8/8/8 5/2/3
f 6/6/6 5/2/3 9/9/9
f 5/2/3 8/8/8 9/9/9
s 2
f 7/7/10 10/10/11 8/8/12
f 10/10/11 11/11/13 8/8/12
f 9/9/14 8/8/12 12/12/15
f 8/8/12 11/11/13 12/12/15
f 11/11/13 10/10/11 14/13/16
f 10/10/11 13/14/17 14/13/16
f 11/11/13 14/13/16 12/12/15
f 14/13/16 15/15/18 12/12/15
s 3
f 14/13/19 13/14/20 17/16/21
f 13/14/20 16/17/22 17/16/21
f 14/13/19 17/16/21 15/15/23
f 17/16/21 18/18/24 15/15/23
f 16/17/22 19/19/25 17/16/21
f 19/19/25 20/20/26 17/16/21
f 18/18/24 17/16/21 21/21/27
f 17/16/21 20/20/26 21/21/27
s 4
f 20/20/28 19/19/29 23/22/30
f 19/19/29 22/23/31 23/22/30
f 20/20/28 23/22/30 21/21/32
f 23/22/30 24/24/33 21/21/32
f 22/23/31 1/3/34 23/22/30
f 1/3/34 2/1/35 23/22/30
f 24/24/33 23/22/30 3/5/36
f 23/22/30 2/1/35 3/5/36
s 5
f 24/24/37 25/25/38 21/21/39
f 25/25/38 18/18/40 21/21/39
f 24/24/37 3/5/41 25/25/38
f 3/5/41 6/6/42 25/25/38
f 18/18/40 25/25/38 15/15/43
f 25/25/38 12/12/44 15/15/43
f 6/6/42 9/9/45 25/25/38
f 9/9/45 12/12/44 25/25/38
s 6
f 22/23/46 19/19/47 26/26/48
f 19/19/47 16/17/49 26/26/48
f 22/23/46 26/26/48 1/3/50
f 26/26/48 4/4/51 1/3/50
f 16/17/49 13/14/52 26/26/48
f 13/14/52 10/10/53 26/26/48
f 4/4/51 26/26/48 7/7/54
f 26/26/48 10/10/53 7/7/54
g default
v -0.086604 0.000000 -0.062962
v 0.000005 0.000000 -0.098835
v 0.086614 0.000000 -0.062962
v 0.122472 0.000000 0.023642
v 0.086614 0.000000 0.110246
v 0.000005 0.000000 0.146119
v -0.086604 0.000000 0.110246
v -0.122477 0.000000 0.023642
v -0.086604 2.245378 -0.062962
v 0.000005 2.245378 -0.098835
v 0.086614 2.245378 -0.062962
v 0.122472 2.245378 0.023642
v 0.086614 2.245378 0.110246
v 0.000005 2.245378 0.146119
v -0.086604 2.245378 0.110246
v -0.122477 2.245378 0.023642
v 0.000005 0.000000 0.023642
v 0.000005 2.245378 0.023642
v -0.050189 0.968795 -0.056997
v 0.000005 0.968795 -0.077787
v 0.050191 0.968795 -0.056997
v 0.070981 0.968795 -0.006807
v 0.050191 0.968795 0.043382
v 0.000005 0.968795 0.064172
v -0.050189 0.968795 0.043382
v -0.070979 0.968795 -0.006807
vt 0.869674 0.378869
vt 0.870678 0.378869
vt 0.871694 0.441186
vt 0.869962 0.441186
vt 0.869674 0.378869
vt 0.869962 0.441186
vt 0.867250 0.378869
vt 0.865780 0.441186
vt 0.864827 0.378869
vt 0.861598 0.441186
vt 0.863823 0.378869
vt 0.859866 0.441186
vt 0.864827 0.378869
vt 0.861598 0.441186
vt 0.867250 0.378869
vt 0.865780 0.441186
vt 0.871694 0.331576
vt 0.869962 0.331576
vt 0.865780 0.331576
vt 0.869962 0.331576
vt 0.865780 0.331576
vt 0.861598 0.331576
vt 0.859866 0.331576
vt 0.861598 0.331576
vt 0.865780 0.331576
vt 0.865780 0.441186
vn -0.382664 0.000042 -0.923888
vn -0.382619 -0.015231 -0.923781
vn -0.382619 -0.015231 -0.923781
vn -0.382664 0.000010 -0.923888
vn 0.382682 0.000012 -0.923880
vn 0.382638 -0.015232 -0.923773
vn 0.382637 -0.015232 -0.923773
vn 0.382682 0.000043 -0.923880
vn 0.923912 -0.000021 -0.382604
vn 0.923547 -0.028133 -0.382453
vn 0.923547 -0.028133 -0.382453
vn 0.923912 0.000118 -0.382604
vn 0.923912 -0.000041 0.382606
vn 0.922919 -0.046350 0.382194
vn 0.922919 -0.046350 0.382194
vn 0.923912 0.000188 0.382606
vn 0.382682 0.000043 0.923880
vn 0.382011 -0.059202 0.922260
vn 0.382011 -0.059202 0.922260
vn 0.382682 0.000163 0.923880
vn -0.382664 0.000165 0.923888
vn -0.381992 -0.059203 0.922267
vn -0.381993 -0.059203 0.922267
vn -0.382664 0.000045 0.923888
vn -0.923875 0.000193 0.382693
vn -0.922883 -0.046348 0.382282
vn -0.922883 -0.046348 0.382282
vn -0.923875 -0.000035 0.382693
vn -0.923876 0.000118 -0.382692
vn -0.923510 -0.028132 -0.382541
vn -0.923510 -0.028132 -0.382541
vn -0.923876 -0.000021 -0.382692
vn 0.000000 -1.000000 0.000000
vn 0.000000 -1.000000 0.000000
vn 0.000000 -1.000000 0.000000
vn 0.000000 -1.000000 0.000000
vn 0.000000 -1.000000 0.000000
vn 0.000000 -1.000000 0.000000
vn 0.000000 -1.000000 0.000000
vn 0.000000 -1.000000 0.000000
vn 0.000000 -1.000000 0.000000
vn 0.000000 1.000000 0.000001
vn 0.000000 1.000000 0.000000
vn 0.000000 1.000000 0.000000
vn 0.000000 1.000000 -0.000001
vn 0.000000 1.000000 0.000000
vn 0.000000 1.000000 0.000001
vn 0.000000 1.000000 0.000000
vn 0.000000 1.000000 -0.000001
vn 0.000000 1.000000 0.000000
vn -0.382587 0.020066 -0.923702
vn -0.382587 0.020066 -0.923702
vn 0.382605 0.020071 -0.923694
vn 0.382605 0.020071 -0.923694
vn 0.923278 0.037061 -0.382342
vn 0.923278 0.037061 -0.382342
vn 0.922191 0.061014 0.381893
vn 0.922191 0.061014 0.381893
vn 0.381519 0.077910 0.921072
vn 0.381519 0.077910 0.921072
vn -0.381500 0.077917 0.921079
vn -0.381500 0.077917 0.921079
vn -0.922154 0.061025 0.381980
vn -0.922154 0.061025 0.381980
vn -0.923241 0.037059 -0.382430
vn -0.923241 0.037059 -0.382430
s 1
g Tree01 Source Tree01_2
usemtl aiStandardSurface6SG
f 45/27/55 35/30/56 36/29/57 46/28/58
s 2
f 46/28/59 36/29/60 37/32/61 47/31/62
s 3
f 47/31/63 37/32/64 38/34/65 48/33/66
s 4
f 48/33/67 38/34/68 39/36/69 49/35/70
s 5
f 49/35/71 39/36/72 40/38/73 50/37/74
s 6
f 50/37/75 40/38/76 41/40/77 51/39/78
s 7
f 51/39/79 41/40/80 42/42/81 52/41/82
s 8
f 52/41/83 42/42/84 35/30/85 45/27/86
s 9
f 28/43/87 43/45/88 27/44/89
f 29/46/90 43/45/88 28/43/87
f 30/47/91 43/45/88 29/46/90
f 31/48/92 43/45/88 30/47/91
f 32/49/93 43/45/88 31/48/92
f 33/50/94 43/45/88 32/49/93
f 34/51/95 43/45/88 33/50/94
f 27/44/89 43/45/88 34/51/95
s 10
f 35/30/96 44/52/97 36/29/98
f 36/29/98 44/52/97 37/32/99
f 37/32/99 44/52/97 38/34/100
f 38/34/100 44/52/97 39/36/101
f 39/36/101 44/52/97 40/38/102
f 40/38/102 44/52/97 41/40/103
f 41/40/103 44/52/97 42/42/104
f 42/42/104 44/52/97 35/30/96
s 1
f 27/44/105 45/27/55 46/28/58 28/43/106
s 2
f 28/43/107 46/28/59 47/31/62 29/46/108
s 3
f 29/46/109 47/31/63 48/33/66 30/47/110
s 4
f 30/47/111 48/33/67 49/35/70 31/48/112
s 5
f 31/48/113 49/35/71 50/37/74 32/49/114
s 6
f 32/49/115 50/37/75 51/39/78 33/50/116
s 7
f 33/50/117 51/39/79 52/41/82 34/51/118
s 8
f 34/51/119 52/41/83 45/27/86 27/44/120
